<mxfile host="app.diagrams.net" modified="2023-09-11T09:40:18.749Z" agent="Mozilla/5.0 (Windows NT 10.0; Win64; x64; rv:109.0) Gecko/20100101 Firefox/117.0" version="21.6.6" etag="-TVwar1K_LlmixOYI99A" type="github">
  <diagram name="第 1 页" id="HHc26cG-izc9ckiF9W-i">
    <mxGraphModel>
      <root>
        <mxCell id="0" />
        <mxCell id="1" parent="0" />
      </root>
    </mxGraphModel>
  </diagram>
</mxfile>
